<mxfile host="app.diagrams.net" agent="Mozilla/5.0 (Windows NT 10.0; Win64; x64) AppleWebKit/537.36 (KHTML, like Gecko) Chrome/134.0.0.0 Safari/537.36" version="26.1.0">
  <diagram name="Side-1" id="11mVAwVaZCLM5c5xSN7r">
    <mxGraphModel dx="875" dy="435" grid="1" gridSize="10" guides="1" tooltips="1" connect="1" arrows="1" fold="1" page="1" pageScale="1" pageWidth="827" pageHeight="1169" math="0" shadow="0">
      <root>
        <mxCell id="0" />
        <mxCell id="1" parent="0" />
        <mxCell id="hKpaBizZy8rCdB1rDmeT-2" value="" style="shape=ext;double=1;whiteSpace=wrap;html=1;aspect=fixed;fillColor=none;" vertex="1" parent="1">
          <mxGeometry x="30" y="30" width="270" height="270" as="geometry" />
        </mxCell>
        <mxCell id="hKpaBizZy8rCdB1rDmeT-6" value="" style="edgeStyle=orthogonalEdgeStyle;rounded=0;orthogonalLoop=1;jettySize=auto;html=1;" edge="1" parent="1" source="hKpaBizZy8rCdB1rDmeT-1" target="hKpaBizZy8rCdB1rDmeT-3">
          <mxGeometry relative="1" as="geometry" />
        </mxCell>
        <mxCell id="hKpaBizZy8rCdB1rDmeT-1" value="PosPub" style="rounded=1;whiteSpace=wrap;html=1;" vertex="1" parent="1">
          <mxGeometry x="50" y="50" width="100" height="50" as="geometry" />
        </mxCell>
        <mxCell id="hKpaBizZy8rCdB1rDmeT-3" value="2" style="ellipse;whiteSpace=wrap;html=1;aspect=fixed;" vertex="1" parent="1">
          <mxGeometry x="180" y="60" width="30" height="30" as="geometry" />
        </mxCell>
        <mxCell id="hKpaBizZy8rCdB1rDmeT-7" value="" style="shape=ext;double=1;whiteSpace=wrap;html=1;aspect=fixed;fillColor=none;" vertex="1" parent="1">
          <mxGeometry x="30" y="300" width="270" height="270" as="geometry" />
        </mxCell>
        <mxCell id="hKpaBizZy8rCdB1rDmeT-8" value="" style="shape=ext;double=1;whiteSpace=wrap;html=1;aspect=fixed;fillColor=none;" vertex="1" parent="1">
          <mxGeometry x="300" y="30" width="540" height="540" as="geometry" />
        </mxCell>
        <mxCell id="hKpaBizZy8rCdB1rDmeT-12" value="" style="edgeStyle=orthogonalEdgeStyle;rounded=0;orthogonalLoop=1;jettySize=auto;html=1;" edge="1" parent="1" source="hKpaBizZy8rCdB1rDmeT-9" target="hKpaBizZy8rCdB1rDmeT-11">
          <mxGeometry relative="1" as="geometry" />
        </mxCell>
        <mxCell id="hKpaBizZy8rCdB1rDmeT-15" value="" style="edgeStyle=orthogonalEdgeStyle;rounded=0;orthogonalLoop=1;jettySize=auto;html=1;" edge="1" parent="1" source="hKpaBizZy8rCdB1rDmeT-9" target="hKpaBizZy8rCdB1rDmeT-14">
          <mxGeometry relative="1" as="geometry" />
        </mxCell>
        <mxCell id="hKpaBizZy8rCdB1rDmeT-9" value="GUI" style="rounded=1;whiteSpace=wrap;html=1;" vertex="1" parent="1">
          <mxGeometry x="70" y="430" width="80" height="40" as="geometry" />
        </mxCell>
        <mxCell id="hKpaBizZy8rCdB1rDmeT-29" value="" style="edgeStyle=orthogonalEdgeStyle;rounded=0;orthogonalLoop=1;jettySize=auto;html=1;" edge="1" parent="1" source="hKpaBizZy8rCdB1rDmeT-11" target="hKpaBizZy8rCdB1rDmeT-28">
          <mxGeometry relative="1" as="geometry" />
        </mxCell>
        <mxCell id="hKpaBizZy8rCdB1rDmeT-11" value="Waypoint que&lt;div&gt;pub&lt;/div&gt;" style="rounded=1;whiteSpace=wrap;html=1;" vertex="1" parent="1">
          <mxGeometry x="70" y="500" width="80" height="40" as="geometry" />
        </mxCell>
        <mxCell id="hKpaBizZy8rCdB1rDmeT-64" style="edgeStyle=orthogonalEdgeStyle;rounded=0;orthogonalLoop=1;jettySize=auto;html=1;" edge="1" parent="1" source="hKpaBizZy8rCdB1rDmeT-14" target="hKpaBizZy8rCdB1rDmeT-63">
          <mxGeometry relative="1" as="geometry" />
        </mxCell>
        <mxCell id="hKpaBizZy8rCdB1rDmeT-14" value="Safety" style="rounded=1;whiteSpace=wrap;html=1;" vertex="1" parent="1">
          <mxGeometry x="180" y="430" width="80" height="40" as="geometry" />
        </mxCell>
        <mxCell id="hKpaBizZy8rCdB1rDmeT-17" value="ROSBag" style="rounded=1;whiteSpace=wrap;html=1;" vertex="1" parent="1">
          <mxGeometry x="200" y="350" width="80" height="40" as="geometry" />
        </mxCell>
        <mxCell id="hKpaBizZy8rCdB1rDmeT-22" style="edgeStyle=orthogonalEdgeStyle;rounded=0;orthogonalLoop=1;jettySize=auto;html=1;entryX=0.5;entryY=0;entryDx=0;entryDy=0;" edge="1" parent="1" source="hKpaBizZy8rCdB1rDmeT-20" target="hKpaBizZy8rCdB1rDmeT-17">
          <mxGeometry relative="1" as="geometry" />
        </mxCell>
        <mxCell id="hKpaBizZy8rCdB1rDmeT-23" style="edgeStyle=orthogonalEdgeStyle;rounded=0;orthogonalLoop=1;jettySize=auto;html=1;" edge="1" parent="1" source="hKpaBizZy8rCdB1rDmeT-20" target="hKpaBizZy8rCdB1rDmeT-9">
          <mxGeometry relative="1" as="geometry" />
        </mxCell>
        <mxCell id="hKpaBizZy8rCdB1rDmeT-20" value="2" style="ellipse;whiteSpace=wrap;html=1;aspect=fixed;" vertex="1" parent="1">
          <mxGeometry x="95" y="310" width="30" height="30" as="geometry" />
        </mxCell>
        <mxCell id="hKpaBizZy8rCdB1rDmeT-26" style="edgeStyle=orthogonalEdgeStyle;rounded=0;orthogonalLoop=1;jettySize=auto;html=1;" edge="1" parent="1" source="hKpaBizZy8rCdB1rDmeT-25" target="hKpaBizZy8rCdB1rDmeT-17">
          <mxGeometry relative="1" as="geometry" />
        </mxCell>
        <mxCell id="hKpaBizZy8rCdB1rDmeT-27" style="edgeStyle=orthogonalEdgeStyle;rounded=0;orthogonalLoop=1;jettySize=auto;html=1;entryX=0.5;entryY=0;entryDx=0;entryDy=0;" edge="1" parent="1" source="hKpaBizZy8rCdB1rDmeT-25" target="hKpaBizZy8rCdB1rDmeT-9">
          <mxGeometry relative="1" as="geometry" />
        </mxCell>
        <mxCell id="hKpaBizZy8rCdB1rDmeT-25" value="4" style="ellipse;whiteSpace=wrap;html=1;aspect=fixed;" vertex="1" parent="1">
          <mxGeometry x="125" y="355" width="30" height="30" as="geometry" />
        </mxCell>
        <mxCell id="hKpaBizZy8rCdB1rDmeT-28" value="1" style="ellipse;whiteSpace=wrap;html=1;aspect=fixed;" vertex="1" parent="1">
          <mxGeometry x="180" y="505" width="30" height="30" as="geometry" />
        </mxCell>
        <mxCell id="hKpaBizZy8rCdB1rDmeT-40" value="" style="edgeStyle=orthogonalEdgeStyle;rounded=0;orthogonalLoop=1;jettySize=auto;html=1;" edge="1" parent="1" source="hKpaBizZy8rCdB1rDmeT-32" target="hKpaBizZy8rCdB1rDmeT-39">
          <mxGeometry relative="1" as="geometry" />
        </mxCell>
        <mxCell id="hKpaBizZy8rCdB1rDmeT-32" value="Pos[1]" style="rounded=1;whiteSpace=wrap;html=1;" vertex="1" parent="1">
          <mxGeometry x="325" y="170" width="80" height="40" as="geometry" />
        </mxCell>
        <mxCell id="hKpaBizZy8rCdB1rDmeT-36" value="" style="edgeStyle=orthogonalEdgeStyle;rounded=0;orthogonalLoop=1;jettySize=auto;html=1;" edge="1" parent="1" source="hKpaBizZy8rCdB1rDmeT-33" target="hKpaBizZy8rCdB1rDmeT-32">
          <mxGeometry relative="1" as="geometry" />
        </mxCell>
        <mxCell id="hKpaBizZy8rCdB1rDmeT-33" value="1" style="ellipse;whiteSpace=wrap;html=1;aspect=fixed;" vertex="1" parent="1">
          <mxGeometry x="350" y="110" width="30" height="30" as="geometry" />
        </mxCell>
        <mxCell id="hKpaBizZy8rCdB1rDmeT-38" value="" style="edgeStyle=orthogonalEdgeStyle;rounded=0;orthogonalLoop=1;jettySize=auto;html=1;" edge="1" parent="1" source="hKpaBizZy8rCdB1rDmeT-34" target="hKpaBizZy8rCdB1rDmeT-37">
          <mxGeometry relative="1" as="geometry" />
        </mxCell>
        <mxCell id="hKpaBizZy8rCdB1rDmeT-34" value="2" style="ellipse;whiteSpace=wrap;html=1;aspect=fixed;" vertex="1" parent="1">
          <mxGeometry x="460" y="110" width="30" height="30" as="geometry" />
        </mxCell>
        <mxCell id="hKpaBizZy8rCdB1rDmeT-62" value="" style="edgeStyle=orthogonalEdgeStyle;rounded=0;orthogonalLoop=1;jettySize=auto;html=1;" edge="1" parent="1" source="hKpaBizZy8rCdB1rDmeT-35" target="hKpaBizZy8rCdB1rDmeT-56">
          <mxGeometry relative="1" as="geometry" />
        </mxCell>
        <mxCell id="hKpaBizZy8rCdB1rDmeT-35" value="3" style="ellipse;whiteSpace=wrap;html=1;aspect=fixed;" vertex="1" parent="1">
          <mxGeometry x="570" y="110" width="30" height="30" as="geometry" />
        </mxCell>
        <mxCell id="hKpaBizZy8rCdB1rDmeT-55" style="edgeStyle=orthogonalEdgeStyle;rounded=0;orthogonalLoop=1;jettySize=auto;html=1;entryX=0.5;entryY=0;entryDx=0;entryDy=0;" edge="1" parent="1" source="hKpaBizZy8rCdB1rDmeT-37" target="hKpaBizZy8rCdB1rDmeT-39">
          <mxGeometry relative="1" as="geometry">
            <Array as="points">
              <mxPoint x="475" y="220" />
              <mxPoint x="365" y="220" />
            </Array>
          </mxGeometry>
        </mxCell>
        <mxCell id="hKpaBizZy8rCdB1rDmeT-37" value="Reformatering" style="rounded=1;whiteSpace=wrap;html=1;" vertex="1" parent="1">
          <mxGeometry x="435" y="170" width="80" height="40" as="geometry" />
        </mxCell>
        <mxCell id="hKpaBizZy8rCdB1rDmeT-43" value="" style="edgeStyle=orthogonalEdgeStyle;rounded=0;orthogonalLoop=1;jettySize=auto;html=1;" edge="1" parent="1" source="hKpaBizZy8rCdB1rDmeT-39" target="hKpaBizZy8rCdB1rDmeT-42">
          <mxGeometry relative="1" as="geometry" />
        </mxCell>
        <mxCell id="hKpaBizZy8rCdB1rDmeT-39" value="ControlSystem&lt;div&gt;- PID&lt;/div&gt;&lt;div&gt;- MMA&lt;/div&gt;" style="rounded=1;whiteSpace=wrap;html=1;" vertex="1" parent="1">
          <mxGeometry x="320" y="230" width="90" height="60" as="geometry" />
        </mxCell>
        <mxCell id="hKpaBizZy8rCdB1rDmeT-45" value="" style="edgeStyle=orthogonalEdgeStyle;rounded=0;orthogonalLoop=1;jettySize=auto;html=1;" edge="1" parent="1" source="hKpaBizZy8rCdB1rDmeT-42" target="hKpaBizZy8rCdB1rDmeT-44">
          <mxGeometry relative="1" as="geometry" />
        </mxCell>
        <mxCell id="hKpaBizZy8rCdB1rDmeT-49" style="edgeStyle=orthogonalEdgeStyle;rounded=0;orthogonalLoop=1;jettySize=auto;html=1;" edge="1" parent="1" source="hKpaBizZy8rCdB1rDmeT-42" target="hKpaBizZy8rCdB1rDmeT-47">
          <mxGeometry relative="1" as="geometry" />
        </mxCell>
        <mxCell id="hKpaBizZy8rCdB1rDmeT-42" value="Cube Orange" style="rounded=1;whiteSpace=wrap;html=1;" vertex="1" parent="1">
          <mxGeometry x="325" y="310" width="80" height="40" as="geometry" />
        </mxCell>
        <mxCell id="hKpaBizZy8rCdB1rDmeT-44" value="Motors" style="rounded=1;whiteSpace=wrap;html=1;" vertex="1" parent="1">
          <mxGeometry x="325" y="370" width="80" height="40" as="geometry" />
        </mxCell>
        <mxCell id="hKpaBizZy8rCdB1rDmeT-50" value="" style="edgeStyle=orthogonalEdgeStyle;rounded=0;orthogonalLoop=1;jettySize=auto;html=1;" edge="1" parent="1" source="hKpaBizZy8rCdB1rDmeT-47" target="hKpaBizZy8rCdB1rDmeT-39">
          <mxGeometry relative="1" as="geometry" />
        </mxCell>
        <mxCell id="hKpaBizZy8rCdB1rDmeT-60" value="" style="edgeStyle=orthogonalEdgeStyle;rounded=0;orthogonalLoop=1;jettySize=auto;html=1;" edge="1" parent="1" source="hKpaBizZy8rCdB1rDmeT-47" target="hKpaBizZy8rCdB1rDmeT-52">
          <mxGeometry relative="1" as="geometry" />
        </mxCell>
        <mxCell id="hKpaBizZy8rCdB1rDmeT-67" style="edgeStyle=orthogonalEdgeStyle;rounded=0;orthogonalLoop=1;jettySize=auto;html=1;entryX=1;entryY=0.5;entryDx=0;entryDy=0;" edge="1" parent="1" source="hKpaBizZy8rCdB1rDmeT-47" target="hKpaBizZy8rCdB1rDmeT-56">
          <mxGeometry relative="1" as="geometry">
            <Array as="points">
              <mxPoint x="475" y="230" />
              <mxPoint x="645" y="230" />
              <mxPoint x="645" y="190" />
            </Array>
          </mxGeometry>
        </mxCell>
        <mxCell id="hKpaBizZy8rCdB1rDmeT-47" value="IMU" style="rounded=1;whiteSpace=wrap;html=1;" vertex="1" parent="1">
          <mxGeometry x="435" y="240" width="80" height="40" as="geometry" />
        </mxCell>
        <mxCell id="hKpaBizZy8rCdB1rDmeT-52" value="4" style="ellipse;whiteSpace=wrap;html=1;aspect=fixed;" vertex="1" parent="1">
          <mxGeometry x="540" y="245" width="30" height="30" as="geometry" />
        </mxCell>
        <mxCell id="hKpaBizZy8rCdB1rDmeT-59" style="edgeStyle=orthogonalEdgeStyle;rounded=0;orthogonalLoop=1;jettySize=auto;html=1;" edge="1" parent="1" source="hKpaBizZy8rCdB1rDmeT-56" target="hKpaBizZy8rCdB1rDmeT-42">
          <mxGeometry relative="1" as="geometry">
            <Array as="points">
              <mxPoint x="585" y="300" />
              <mxPoint x="365" y="300" />
            </Array>
          </mxGeometry>
        </mxCell>
        <mxCell id="hKpaBizZy8rCdB1rDmeT-65" value="E Stop" style="edgeLabel;html=1;align=center;verticalAlign=middle;resizable=0;points=[];" vertex="1" connectable="0" parent="hKpaBizZy8rCdB1rDmeT-59">
          <mxGeometry x="-0.749" relative="1" as="geometry">
            <mxPoint as="offset" />
          </mxGeometry>
        </mxCell>
        <mxCell id="hKpaBizZy8rCdB1rDmeT-61" style="edgeStyle=orthogonalEdgeStyle;rounded=0;orthogonalLoop=1;jettySize=auto;html=1;" edge="1" parent="1" source="hKpaBizZy8rCdB1rDmeT-56" target="hKpaBizZy8rCdB1rDmeT-39">
          <mxGeometry relative="1" as="geometry">
            <Array as="points">
              <mxPoint x="585" y="220" />
              <mxPoint x="365" y="220" />
            </Array>
          </mxGeometry>
        </mxCell>
        <mxCell id="hKpaBizZy8rCdB1rDmeT-66" value="E" style="edgeLabel;html=1;align=center;verticalAlign=middle;resizable=0;points=[];" vertex="1" connectable="0" parent="hKpaBizZy8rCdB1rDmeT-61">
          <mxGeometry x="-0.5333" y="-2" relative="1" as="geometry">
            <mxPoint as="offset" />
          </mxGeometry>
        </mxCell>
        <mxCell id="hKpaBizZy8rCdB1rDmeT-56" value="Safety Control" style="rounded=1;whiteSpace=wrap;html=1;" vertex="1" parent="1">
          <mxGeometry x="545" y="170" width="80" height="40" as="geometry" />
        </mxCell>
        <mxCell id="hKpaBizZy8rCdB1rDmeT-63" value="3" style="ellipse;whiteSpace=wrap;html=1;aspect=fixed;" vertex="1" parent="1">
          <mxGeometry x="240" y="505" width="30" height="30" as="geometry" />
        </mxCell>
      </root>
    </mxGraphModel>
  </diagram>
</mxfile>
